<?xml version="1.0" encoding="UTF-8" standalone="no"?>
<!DOCTYPE svg PUBLIC "-//W3C//DTD SVG 1.1//EN"
 "http://www.w3.org/Graphics/SVG/1.1/DTD/svg11.dtd">
<!-- Generated by graphviz version 2.38.0 (20140413.2041)
 -->
<!-- Title: %3 Pages: 1 -->
<svg width="942pt" height="116pt"
 viewBox="0.00 0.00 942.43 116.00" xmlns="http://www.w3.org/2000/svg" xmlns:xlink="http://www.w3.org/1999/xlink">
<g id="graph0" class="graph" transform="scale(1 1) rotate(0) translate(4 112)">
<title>%3</title>
<polygon fill="white" stroke="none" points="-4,4 -4,-112 938.432,-112 938.432,4 -4,4"/>
<!-- PotentialComputation -->
<g id="node1" class="node"><title>PotentialComputation</title>
<ellipse fill="none" stroke="black" cx="540.754" cy="-90" rx="87.9585" ry="18"/>
<text text-anchor="middle" x="540.754" y="-85.8" font-family="Times,serif" font-size="14.00">PotentialComputation</text>
</g>
<!-- CutoffComputation{T&lt;:ShortRangePotential} -->
<g id="node2" class="node"><title>CutoffComputation{T&lt;:ShortRangePotential}</title>
<ellipse fill="none" stroke="black" cx="173.754" cy="-18" rx="173.509" ry="18"/>
<text text-anchor="middle" x="173.754" y="-13.8" font-family="Times,serif" font-size="14.00">CutoffComputation{T&lt;:ShortRangePotential}</text>
</g>
<!-- PotentialComputation&#45;&gt;CutoffComputation{T&lt;:ShortRangePotential} -->
<g id="edge1" class="edge"><title>PotentialComputation&#45;&gt;CutoffComputation{T&lt;:ShortRangePotential}</title>
<path fill="none" stroke="black" d="M478.913,-77.2046C419.746,-65.9195 329.868,-48.7764 262.958,-36.0143"/>
<polygon fill="black" stroke="black" points="263.321,-32.5205 252.842,-34.0849 262.009,-39.3966 263.321,-32.5205"/>
</g>
<!-- DirectComputation -->
<g id="node3" class="node"><title>DirectComputation</title>
<ellipse fill="none" stroke="black" cx="443.754" cy="-18" rx="78.2694" ry="18"/>
<text text-anchor="middle" x="443.754" y="-13.8" font-family="Times,serif" font-size="14.00">DirectComputation</text>
</g>
<!-- PotentialComputation&#45;&gt;DirectComputation -->
<g id="edge2" class="edge"><title>PotentialComputation&#45;&gt;DirectComputation</title>
<path fill="none" stroke="black" d="M517.766,-72.411C504.962,-63.1703 488.84,-51.536 474.914,-41.4867"/>
<polygon fill="black" stroke="black" points="476.734,-38.4837 466.577,-35.4699 472.638,-44.16 476.734,-38.4837"/>
</g>
<!-- LongRangeComputation -->
<g id="node4" class="node"><title>LongRangeComputation</title>
<ellipse fill="none" stroke="black" cx="637.754" cy="-18" rx="97.5967" ry="18"/>
<text text-anchor="middle" x="637.754" y="-13.8" font-family="Times,serif" font-size="14.00">LongRangeComputation</text>
</g>
<!-- PotentialComputation&#45;&gt;LongRangeComputation -->
<g id="edge3" class="edge"><title>PotentialComputation&#45;&gt;LongRangeComputation</title>
<path fill="none" stroke="black" d="M563.742,-72.411C576.454,-63.2373 592.435,-51.7045 606.291,-41.7054"/>
<polygon fill="black" stroke="black" points="608.534,-44.4026 614.595,-35.7125 604.438,-38.7263 608.534,-44.4026"/>
</g>
<!-- TableComputation{N} -->
<g id="node5" class="node"><title>TableComputation{N}</title>
<ellipse fill="none" stroke="black" cx="843.754" cy="-18" rx="90.8568" ry="18"/>
<text text-anchor="middle" x="843.754" y="-13.8" font-family="Times,serif" font-size="14.00">TableComputation{N}</text>
</g>
<!-- PotentialComputation&#45;&gt;TableComputation{N} -->
<g id="edge4" class="edge"><title>PotentialComputation&#45;&gt;TableComputation{N}</title>
<path fill="none" stroke="black" d="M596.682,-76.0793C647.712,-64.2903 723.192,-46.8525 777.285,-34.356"/>
<polygon fill="black" stroke="black" points="778.17,-37.7438 787.125,-32.0826 776.594,-30.9234 778.17,-37.7438"/>
</g>
</g>
</svg>
