<?xml version="1.0" encoding="UTF-8" standalone="no"?>
<!DOCTYPE svg PUBLIC "-//W3C//DTD SVG 1.1//EN"
 "http://www.w3.org/Graphics/SVG/1.1/DTD/svg11.dtd">
<!-- Generated by graphviz version 2.38.0 (20140413.2041)
 -->
<!-- Title: %3 Pages: 1 -->
<svg width="811pt" height="260pt"
 viewBox="0.00 0.00 811.40 260.00" xmlns="http://www.w3.org/2000/svg" xmlns:xlink="http://www.w3.org/1999/xlink">
<g id="graph0" class="graph" transform="scale(1 1) rotate(0) translate(4 256)">
<title>%3</title>
<polygon fill="white" stroke="none" points="-4,4 -4,-256 807.404,-256 807.404,4 -4,4"/>
<!-- PotentialFunction -->
<g id="node1" class="node"><title>PotentialFunction</title>
<ellipse fill="none" stroke="black" cx="293.159" cy="-234" rx="72.9826" ry="18"/>
<text text-anchor="middle" x="293.159" y="-229.8" font-family="Times,serif" font-size="14.00">PotentialFunction</text>
</g>
<!-- AnglePotential -->
<g id="node2" class="node"><title>AnglePotential</title>
<ellipse fill="none" stroke="black" cx="63.159" cy="-162" rx="63.3184" ry="18"/>
<text text-anchor="middle" x="63.159" y="-157.8" font-family="Times,serif" font-size="14.00">AnglePotential</text>
</g>
<!-- PotentialFunction&#45;&gt;AnglePotential -->
<g id="edge1" class="edge"><title>PotentialFunction&#45;&gt;AnglePotential</title>
<path fill="none" stroke="black" d="M249.085,-219.586C210.645,-207.887 154.858,-190.908 114.43,-178.604"/>
<polygon fill="black" stroke="black" points="115.347,-175.225 104.761,-175.661 113.308,-181.921 115.347,-175.225"/>
</g>
<!-- BondedPotential -->
<g id="node3" class="node"><title>BondedPotential</title>
<ellipse fill="none" stroke="black" cx="213.159" cy="-162" rx="69.1151" ry="18"/>
<text text-anchor="middle" x="213.159" y="-157.8" font-family="Times,serif" font-size="14.00">BondedPotential</text>
</g>
<!-- PotentialFunction&#45;&gt;BondedPotential -->
<g id="edge2" class="edge"><title>PotentialFunction&#45;&gt;BondedPotential</title>
<path fill="none" stroke="black" d="M274.2,-216.411C263.839,-207.345 250.844,-195.974 239.51,-186.057"/>
<polygon fill="black" stroke="black" points="241.812,-183.421 231.982,-179.47 237.203,-188.689 241.812,-183.421"/>
</g>
<!-- DihedralPotential -->
<g id="node5" class="node"><title>DihedralPotential</title>
<ellipse fill="none" stroke="black" cx="373.159" cy="-162" rx="72.4722" ry="18"/>
<text text-anchor="middle" x="373.159" y="-157.8" font-family="Times,serif" font-size="14.00">DihedralPotential</text>
</g>
<!-- PotentialFunction&#45;&gt;DihedralPotential -->
<g id="edge4" class="edge"><title>PotentialFunction&#45;&gt;DihedralPotential</title>
<path fill="none" stroke="black" d="M312.118,-216.411C322.479,-207.345 335.474,-195.974 346.808,-186.057"/>
<polygon fill="black" stroke="black" points="349.115,-188.689 354.336,-179.47 344.506,-183.421 349.115,-188.689"/>
</g>
<!-- PairPotential -->
<g id="node6" class="node"><title>PairPotential</title>
<ellipse fill="none" stroke="black" cx="519.159" cy="-162" rx="55.5854" ry="18"/>
<text text-anchor="middle" x="519.159" y="-157.8" font-family="Times,serif" font-size="14.00">PairPotential</text>
</g>
<!-- PotentialFunction&#45;&gt;PairPotential -->
<g id="edge5" class="edge"><title>PotentialFunction&#45;&gt;PairPotential</title>
<path fill="none" stroke="black" d="M336.734,-219.503C375.046,-207.637 430.741,-190.386 470.5,-178.072"/>
<polygon fill="black" stroke="black" points="471.727,-181.355 480.244,-175.053 469.656,-174.669 471.727,-181.355"/>
</g>
<!-- Harmonic -->
<g id="node4" class="node"><title>Harmonic</title>
<ellipse fill="none" stroke="black" cx="213.159" cy="-90" rx="45.4355" ry="18"/>
<text text-anchor="middle" x="213.159" y="-85.8" font-family="Times,serif" font-size="14.00">Harmonic</text>
</g>
<!-- BondedPotential&#45;&gt;Harmonic -->
<g id="edge3" class="edge"><title>BondedPotential&#45;&gt;Harmonic</title>
<path fill="none" stroke="black" d="M213.159,-143.697C213.159,-135.983 213.159,-126.712 213.159,-118.112"/>
<polygon fill="black" stroke="black" points="216.659,-118.104 213.159,-108.104 209.659,-118.104 216.659,-118.104"/>
</g>
<!-- LongRangePotential -->
<g id="node7" class="node"><title>LongRangePotential</title>
<ellipse fill="none" stroke="black" cx="361.159" cy="-90" rx="82.6131" ry="18"/>
<text text-anchor="middle" x="361.159" y="-85.8" font-family="Times,serif" font-size="14.00">LongRangePotential</text>
</g>
<!-- PairPotential&#45;&gt;LongRangePotential -->
<g id="edge6" class="edge"><title>PairPotential&#45;&gt;LongRangePotential</title>
<path fill="none" stroke="black" d="M487.565,-147.003C463.985,-136.556 431.462,-122.147 405.311,-110.561"/>
<polygon fill="black" stroke="black" points="406.554,-107.284 395.993,-106.433 403.718,-113.684 406.554,-107.284"/>
</g>
<!-- NullPotential -->
<g id="node8" class="node"><title>NullPotential</title>
<ellipse fill="none" stroke="black" cx="519.159" cy="-90" rx="57.0391" ry="18"/>
<text text-anchor="middle" x="519.159" y="-85.8" font-family="Times,serif" font-size="14.00">NullPotential</text>
</g>
<!-- PairPotential&#45;&gt;NullPotential -->
<g id="edge7" class="edge"><title>PairPotential&#45;&gt;NullPotential</title>
<path fill="none" stroke="black" d="M519.159,-143.697C519.159,-135.983 519.159,-126.712 519.159,-118.112"/>
<polygon fill="black" stroke="black" points="522.659,-118.104 519.159,-108.104 515.659,-118.104 522.659,-118.104"/>
</g>
<!-- ShortRangePotential -->
<g id="node9" class="node"><title>ShortRangePotential</title>
<ellipse fill="none" stroke="black" cx="678.159" cy="-90" rx="83.1063" ry="18"/>
<text text-anchor="middle" x="678.159" y="-85.8" font-family="Times,serif" font-size="14.00">ShortRangePotential</text>
</g>
<!-- PairPotential&#45;&gt;ShortRangePotential -->
<g id="edge8" class="edge"><title>PairPotential&#45;&gt;ShortRangePotential</title>
<path fill="none" stroke="black" d="M550.953,-147.003C574.683,-136.556 607.411,-122.147 633.727,-110.561"/>
<polygon fill="black" stroke="black" points="635.362,-113.666 643.104,-106.433 632.542,-107.259 635.362,-113.666"/>
</g>
<!-- LennardJones -->
<g id="node10" class="node"><title>LennardJones</title>
<ellipse fill="none" stroke="black" cx="610.159" cy="-18" rx="59.4426" ry="18"/>
<text text-anchor="middle" x="610.159" y="-13.8" font-family="Times,serif" font-size="14.00">LennardJones</text>
</g>
<!-- ShortRangePotential&#45;&gt;LennardJones -->
<g id="edge9" class="edge"><title>ShortRangePotential&#45;&gt;LennardJones</title>
<path fill="none" stroke="black" d="M661.698,-72.055C653.262,-63.3707 642.842,-52.6444 633.584,-43.114"/>
<polygon fill="black" stroke="black" points="635.947,-40.5231 626.468,-35.789 630.926,-45.4006 635.947,-40.5231"/>
</g>
<!-- UserPotential -->
<g id="node11" class="node"><title>UserPotential</title>
<ellipse fill="none" stroke="black" cx="745.159" cy="-18" rx="58.491" ry="18"/>
<text text-anchor="middle" x="745.159" y="-13.8" font-family="Times,serif" font-size="14.00">UserPotential</text>
</g>
<!-- ShortRangePotential&#45;&gt;UserPotential -->
<g id="edge10" class="edge"><title>ShortRangePotential&#45;&gt;UserPotential</title>
<path fill="none" stroke="black" d="M694.378,-72.055C702.69,-63.3707 712.957,-52.6444 722.078,-43.114"/>
<polygon fill="black" stroke="black" points="724.703,-45.4333 729.09,-35.789 719.646,-40.5931 724.703,-45.4333"/>
</g>
</g>
</svg>
